<?xml version="1.0" ?><!DOCTYPE svg  PUBLIC '-//W3C//DTD SVG 1.1//EN'  'http://www.w3.org/Graphics/SVG/1.1/DTD/svg11.dtd'><svg enable-background="new 0 0 128 128" id="Слой_1" version="1.1" viewBox="0 0 128 128" xml:space="preserve" xmlns="http://www.w3.org/2000/svg" xmlns:xlink="http://www.w3.org/1999/xlink"><g><g><g><g><g><path d="M117,39.5l-20-23l-20-6H51l-20,6l-20,23l14,13l5-5l0,65h0c11.3,3.3,22,5,33.7,5h0.6       c11.8,0,22.4-1.7,33.7-5h0l0-65l5,5L117,39.5z" fill="#F6E6B9"/></g></g></g><g opacity="0.15"><g><g><path d="M63.7,117.5h0.6c11.8,0,22.4-1.7,33.7-5h0V88.9c-0.7,0.4-1.5,0.6-2.3,0.6c-0.9,0-1.7-0.2-2.4-0.7       l-9.8-5.7c-3.8-2.2-8.1-3.4-12.5-3.4c-3.6,0-7.1,0.8-10.4,2.3L33.8,94.3l-3.8,1v17.1h0C41.3,115.8,52,117.5,63.7,117.5z" fill="#62345B"/></g></g></g><g><g><g><polygon fill="#FFFFFF" points="38,18.5 59,10.5 51,10.5 31,16.5 11,39.5 25,52.5 28.8,48.6 19,39.5      "/></g></g></g><g><g><g><path d="M77,10.5v3c0,7.2-5.8,13-13,13h0c-7.2,0-13-5.8-13-13v-3" fill="#FFFFFF"/></g></g></g><g><g><g><path d="M56,13.5v-3h-5v3c0,7.2,5.8,13,13,13h0c0.9,0,1.7-0.1,2.5-0.2C60.5,25.1,56,19.8,56,13.5z" fill="#FFFFFF"/></g></g></g><g><g><g><path d="M64.3,119h-0.6c-11.6,0-22.4-1.6-34.1-5.1c-0.6-0.2-1.1-0.8-1.1-1.4V51.1l-2.4,2.4       c-0.6,0.6-1.5,0.6-2.1,0l-14-13c-0.6-0.6-0.6-1.5-0.1-2.1l20-23c0.2-0.2,0.4-0.4,0.7-0.5l20-6C50.7,9,50.9,9,51,9h26       c0.1,0,0.3,0,0.4,0.1l20,6c0.3,0.1,0.5,0.2,0.7,0.5l20,23c0.5,0.6,0.5,1.5-0.1,2.1l-14,13c-0.6,0.5-1.5,0.5-2.1,0l-2.4-2.4       l0,61.1c0,0.1,0,0.2,0,0.2c0,0.7-0.5,1.3-1.2,1.5C86.6,117.4,75.8,119,64.3,119z M31.5,111.4c11,3.2,21.3,4.6,32.2,4.6h0.6       c10.9,0,21.2-1.5,32.2-4.6V47.5c0-0.6,0.4-1.2,0.9-1.4c0.6-0.2,1.2-0.1,1.6,0.3l4,4l11.9-11L96.2,17.8L76.8,12H51.2l-19.4,5.8       L13.1,39.4l11.9,11l4-4c0.4-0.4,1.1-0.6,1.6-0.3c0.6,0.2,0.9,0.8,0.9,1.4V111.4z" fill="#AF9BAC"/></g></g></g><g><g><g><path d="M99,49.5c-0.3,0-0.5-0.1-0.7-0.3c-0.4-0.4-0.4-1,0.1-1.4l0.4-0.3c0.4-0.4,1-0.4,1.4,0.1       c0.4,0.4,0.4,1-0.1,1.4l-0.4,0.3C99.5,49.4,99.2,49.5,99,49.5z" fill="#AF9BAC"/></g></g></g><g><g><g><path d="M102.2,46.6c-0.3,0-0.5-0.1-0.7-0.3c-0.4-0.4-0.4-1,0.1-1.4l0.7-0.6c0.4-0.4,1-0.4,1.4,0.1       c0.4,0.4,0.4,1-0.1,1.4l-0.7,0.6C102.7,46.5,102.4,46.6,102.2,46.6z M105.7,43.3c-0.3,0-0.5-0.1-0.7-0.3       c-0.4-0.4-0.4-1,0.1-1.4l0.7-0.6c0.4-0.4,1-0.4,1.4,0.1c0.4,0.4,0.4,1-0.1,1.4l-0.7,0.6C106.1,43.2,105.9,43.3,105.7,43.3z        M109.1,40.1c-0.3,0-0.5-0.1-0.7-0.3c-0.4-0.4-0.4-1,0.1-1.4l0.7-0.6c0.4-0.4,1-0.4,1.4,0.1c0.4,0.4,0.4,1-0.1,1.4l-0.7,0.6       C109.6,40,109.4,40.1,109.1,40.1z" fill="#AF9BAC"/></g></g></g><g><g><g><path d="M112.6,36.8c-0.3,0-0.5-0.1-0.7-0.3c-0.4-0.4-0.4-1,0.1-1.4l0.4-0.3c0.4-0.4,1-0.4,1.4,0.1       c0.4,0.4,0.4,1-0.1,1.4l-0.4,0.3C113.1,36.7,112.9,36.8,112.6,36.8z" fill="#AF9BAC"/></g></g></g><g><g><g><path d="M15.4,36.8c-0.2,0-0.5-0.1-0.7-0.3l-0.4-0.3c-0.4-0.4-0.4-1-0.1-1.4c0.4-0.4,1-0.4,1.4-0.1l0.4,0.3       c0.4,0.4,0.4,1,0.1,1.4C15.9,36.7,15.6,36.8,15.4,36.8z" fill="#AF9BAC"/></g></g></g><g><g><g><path d="M25.8,46.6c-0.2,0-0.5-0.1-0.7-0.3l-0.7-0.6c-0.4-0.4-0.4-1-0.1-1.4c0.4-0.4,1-0.4,1.4-0.1l0.7,0.6       c0.4,0.4,0.4,1,0.1,1.4C26.4,46.5,26.1,46.6,25.8,46.6z M22.3,43.3c-0.2,0-0.5-0.1-0.7-0.3L21,42.4c-0.4-0.4-0.4-1-0.1-1.4       c0.4-0.4,1-0.4,1.4-0.1l0.7,0.6c0.4,0.4,0.4,1,0.1,1.4C22.9,43.2,22.6,43.3,22.3,43.3z M18.9,40.1c-0.2,0-0.5-0.1-0.7-0.3       l-0.7-0.6c-0.4-0.4-0.4-1-0.1-1.4c0.4-0.4,1-0.4,1.4-0.1l0.7,0.6c0.4,0.4,0.4,1,0.1,1.4C19.4,40,19.1,40.1,18.9,40.1z" fill="#AF9BAC"/></g></g></g><g><g><g><path d="M29,49.5c-0.2,0-0.5-0.1-0.7-0.3L28,48.9c-0.4-0.4-0.4-1-0.1-1.4c0.4-0.4,1-0.4,1.4-0.1l0.4,0.3       c0.4,0.4,0.4,1,0.1,1.4C29.5,49.4,29.3,49.5,29,49.5z" fill="#AF9BAC"/></g></g></g><g><g><g><path d="M64,28c-8,0-14.5-6.5-14.5-14.5v-3C49.5,9.7,50.2,9,51,9s1.5,0.7,1.5,1.5v3C52.5,19.8,57.7,25,64,25       c6.3,0,11.5-5.2,11.5-11.5v-3C75.5,9.7,76.2,9,77,9s1.5,0.7,1.5,1.5v3C78.5,21.5,72,28,64,28z" fill="#AF9BAC"/></g></g></g><g><g><g><circle cx="83.2" cy="40.5" fill="#FFFFFF" r="5"/></g></g></g></g><g><g><g><g><g><polyline fill="#ADA2B5" points="80.4,88.3 76.2,79.5 58.9,89.3       "/></g></g></g><g><g><g><path d="M60,90.3c-0.5,0-1-0.3-1.3-0.8c-0.4-0.7-0.2-1.6,0.6-2l16.2-9.3c0.4-0.2,0.8-0.3,1.2-0.1        c0.4,0.1,0.7,0.4,0.9,0.8l4.1,8.8c0.4,0.7,0,1.6-0.7,2c-0.8,0.4-1.6,0-2-0.7l-3.4-7.3l-14.8,8.5C60.6,90.3,60.3,90.3,60,90.3z        " fill="#62355C"/></g></g></g><g><g><g><polyline fill="#FFFFFF" points="34.6,118 26.6,118 24.6,123 20.6,123 18.6,118       "/></g></g></g><g><g><g><polyline fill="#FFFAFC" points="111.7,118 109.7,124 103.7,124 101.7,118 95.7,118 93.7,124 88.7,124 86.7,118 60.7,118         58.7,124 53.7,124 51.7,118 43.6,118 41.6,124 36.6,124 34.6,118       "/></g></g></g><g><g><g><path d="M112.9,83.3l3.8,23.3c0.7,4.4-1.3,8.9-5.1,11.3l0,0H17.5c-0.4,0-0.8,0-1.1-0.1h0        c-4.7-0.9-6.8-6.4-3.8-10.2l0.1-0.1c0.8-1,2-1.8,3.3-2.2l20-5.5L63,87.5c5.6-2.6,12.1-2.3,17.4,0.8l9.8,5.7        c5.2,3,11.8,1.3,14.8-3.8l0.1-0.2C106.9,87,109.7,84.6,112.9,83.3L112.9,83.3z" fill="#AF66AA"/></g></g></g><g><g><g><path d="M98.4,104.6L98.4,104.6c5.8-3.8,13.5-3,18.3,2h0c0.7,4.4-1.3,8.9-5.1,11.3H45.9l28.8-4.3        C83.2,112.5,91.3,109.4,98.4,104.6z" fill="#FFFFFF"/></g></g></g><g><g><g><path d="M12.5,107.7l0.1-0.1c0.8-1,2-1.8,3.3-2.2l20-5.5L63,87.5c5.6-2.6,12.1-2.3,17.4,0.8l9.8,5.7        c5.2,3,11.8,1.3,14.8-3.8l0.1-0.2c0.9-1.6,2.1-3,3.5-4.1c0.1-0.1,0.2-0.2,0.3-0.2c0.3-0.2,0.6-0.5,0.9-0.7        c0.1-0.1,0.3-0.2,0.4-0.3c0.3-0.2,0.6-0.4,0.9-0.5c0.1-0.1,0.3-0.1,0.4-0.2c0.4-0.2,0.9-0.4,1.4-0.6l0,0l3.8,23.3        c0.7,4.4-1.3,8.9-5.1,11.3h-6c3.8-2.4,5.8-6.9,5.1-11.3L108,90.1c0,0-0.2,0.8-1,2.1c-3,5.1-11,8.3-16.2,5.2l-10.4-6.1        c-5.3-3.1-11.8-1.4-17.4,1.2L35.9,105l-20,5.5c-1.3,0.4-2.4,1.1-3.3,2.2l-0.1,0.1c-0.4,0.5-0.7,0.9-0.9,1.4        C10.8,112.1,11,109.7,12.5,107.7z" fill="#FFFFFF"/></g></g></g><g><g><g><path d="M82.7,113.3c-0.5,0-1-0.2-1.4-0.6L60.7,92.1c-0.8-0.8-0.8-2,0-2.8s2-0.8,2.8,0l20.6,20.6        c0.8,0.8,0.8,2,0,2.8C83.7,113.1,83.2,113.3,82.7,113.3z" fill="#FFFFFF"/></g></g></g><g><g><g><path d="M73.4,116c-0.5,0-1-0.2-1.4-0.6L52.8,96.2c-0.8-0.8-0.8-2,0-2.8s2-0.8,2.8,0l19.2,19.2        c0.8,0.8,0.8,2,0,2.8C74.4,115.8,73.9,116,73.4,116z" fill="#FFFFFF"/></g></g></g><g><g><g><path d="M62.9,117.5c-0.5,0-1-0.2-1.4-0.6L44.6,100c-0.8-0.8-0.8-2,0-2.8s2-0.8,2.8,0l16.9,16.9        c0.8,0.8,0.8,2,0,2.8C63.9,117.3,63.4,117.5,62.9,117.5z" fill="#FFFFFF"/></g></g></g><g><g><g><path d="M111.7,119.5H17.5c-0.5,0-0.9,0-1.4-0.1c-2.7-0.5-5-2.4-5.9-5c-1-2.6-0.5-5.5,1.2-7.6l0.1-0.1        c1-1.3,2.4-2.2,4.1-2.7l19.9-5.4l27-12.5c2.7-1.2,5.6-1.9,8.5-1.9c3.6,0,7.1,1,10.2,2.8l9.8,5.7c1.4,0.8,3.1,1.3,4.7,1.3h0        c3.3,0,6.4-1.8,8.1-4.6l0.1-0.2c2-3.3,4.9-5.9,8.5-7.3c0.4-0.2,0.9-0.1,1.3,0.1c0.4,0.2,0.7,0.6,0.7,1.1l3.8,23.3        c0.8,5-1.4,10.1-5.7,12.8C112.2,119.4,111.9,119.5,111.7,119.5z M70.9,87.2c-2.5,0-5,0.5-7.3,1.6l-27.1,12.5        c-0.1,0-0.2,0.1-0.2,0.1l-20,5.5c-1,0.3-1.9,0.8-2.5,1.6l-0.1,0.1c-1.1,1.3-1.4,3.1-0.8,4.7c0.6,1.6,2,2.8,3.7,3.1        c0.3,0.1,0.6,0.1,0.9,0.1h93.7c3.1-2.2,4.6-5.9,4-9.6l-3.5-21.4c-2.2,1.2-4,3-5.3,5.2l-0.1,0.2c-2.2,3.7-6.3,6.1-10.6,6.1        c0,0,0,0,0,0c-2.2,0-4.3-0.6-6.2-1.7l-9.8-5.7C77,88,74,87.2,70.9,87.2z" fill="#62355C"/></g></g></g><g><g><g><path d="M35.9,101.5c-0.6,0-1.1-0.3-1.4-0.9c-0.3-0.8,0-1.6,0.7-2l27.1-12.5c6-2.8,13-2.5,18.8,0.9l9.8,5.7        c4.4,2.6,10.2,1.1,12.8-3.3l0.1-0.2c0.4-0.7,1.3-0.9,2.1-0.5c0.7,0.4,0.9,1.3,0.5,2.1l-0.1,0.2c-3.5,5.8-11,7.8-16.9,4.4        l-9.8-5.7c-4.9-2.9-10.9-3.1-16-0.8l-27.1,12.5C36.3,101.5,36.1,101.5,35.9,101.5z" fill="#1297D4"/></g></g></g><g><g><g><path d="M109.7,125.5h-6c-0.6,0-1.2-0.4-1.4-1l-1.7-5h-3.8l-1.7,5c-0.2,0.6-0.8,1-1.4,1h-5        c-0.6,0-1.2-0.4-1.4-1l-1.7-5H61.7l-1.7,5c-0.2,0.6-0.8,1-1.4,1h-5c-0.6,0-1.2-0.4-1.4-1l-1.7-5h-5.8l-1.7,5        c-0.2,0.6-0.8,1-1.4,1h-5c-0.6,0-1.2-0.4-1.4-1l-2-6c-0.3-0.8,0.2-1.6,0.9-1.9c0.8-0.3,1.6,0.2,1.9,0.9l1.7,5h2.8l1.7-5        c0.2-0.6,0.8-1,1.4-1h8c0.6,0,1.2,0.4,1.4,1l1.7,5h2.8l1.7-5c0.2-0.6,0.8-1,1.4-1h26c0.6,0,1.2,0.4,1.4,1l1.7,5h2.8l1.7-5        c0.2-0.6,0.8-1,1.4-1h6c0.6,0,1.2,0.4,1.4,1l1.7,5h3.8l1.7-5c0.3-0.8,1.1-1.2,1.9-0.9c0.8,0.3,1.2,1.1,0.9,1.9l-2,6        C110.9,125.1,110.3,125.5,109.7,125.5z" fill="#62355C"/></g></g></g><g><g><g><path d="M24.6,124.5h-4c-0.6,0-1.2-0.4-1.4-0.9l-2-5c-0.3-0.8,0.1-1.6,0.8-1.9c0.8-0.3,1.6,0.1,1.9,0.8        l1.6,4.1h2l1.6-4.1c0.2-0.6,0.8-0.9,1.4-0.9h8c0.8,0,1.5,0.7,1.5,1.5s-0.7,1.5-1.5,1.5h-7l-1.6,4.1        C25.8,124.1,25.3,124.5,24.6,124.5z" fill="#62355C"/></g></g></g><g><g><g><g><path d="M63,93c-0.5,0-1.1-0.3-1.3-0.8l-3-6c-0.4-0.7-0.1-1.6,0.7-2c0.7-0.4,1.6-0.1,2,0.7l3,6         c0.4,0.7,0.1,1.6-0.7,2C63.5,92.9,63.2,93,63,93z" fill="#1297D4"/></g></g></g><g><g><g><path d="M69,91.4c-0.6,0-1.1-0.3-1.4-0.9l-3-7c-0.3-0.8,0-1.6,0.8-2c0.8-0.3,1.6,0,2,0.8l3,7         c0.3,0.8,0,1.6-0.8,2C69.4,91.4,69.2,91.4,69,91.4z" fill="#1297D4"/></g></g></g><g><g><g><path d="M58.1,95.2c-0.5,0-1.1-0.3-1.3-0.8l-3-6c-0.4-0.7-0.1-1.6,0.7-2c0.7-0.4,1.6-0.1,2,0.7l3,6         c0.4,0.7,0.1,1.6-0.7,2C58.6,95.2,58.4,95.2,58.1,95.2z" fill="#1297D4"/></g></g></g><g><g><g><path d="M52.9,97.6c-0.5,0-1.1-0.3-1.3-0.8l-3-6c-0.4-0.7-0.1-1.6,0.7-2c0.7-0.4,1.6-0.1,2,0.7l3,6         c0.4,0.7,0.1,1.6-0.7,2C53.3,97.6,53.1,97.6,52.9,97.6z" fill="#1297D4"/></g></g></g><g><g><g><path d="M47.9,100c-0.5,0-1.1-0.3-1.3-0.8l-3-6c-0.4-0.7-0.1-1.6,0.7-2c0.7-0.4,1.6-0.1,2,0.7l3,6         c0.4,0.7,0.1,1.6-0.7,2C48.3,99.9,48.1,100,47.9,100z" fill="#1297D4"/></g></g></g><g><g><g><path d="M42.5,102.2c-0.5,0-1.1-0.3-1.3-0.8l-3-6c-0.4-0.7-0.1-1.6,0.7-2c0.7-0.4,1.6-0.1,2,0.7l3,6         c0.4,0.7,0.1,1.6-0.7,2C43,102.1,42.8,102.2,42.5,102.2z" fill="#1297D4"/></g></g></g></g></g></g></g></svg>