<?xml version="1.0" ?><!DOCTYPE svg  PUBLIC '-//W3C//DTD SVG 1.1//EN'  'http://www.w3.org/Graphics/SVG/1.1/DTD/svg11.dtd'><svg xmlns="http://www.w3.org/2000/svg" xmlns:xlink="http://www.w3.org/1999/xlink" version="1.1" id="Layer_1" width="512px" height="512px" viewBox="0 0 512 512" enable-background="new 0 0 512 512" xml:space="preserve"><g><g><path fill="#4771B7" d="M458.795,421.79c0,42.3-34.42,76.71-76.71,76.71c-42.3,0-76.71-34.41-76.71-76.71    c0-11.08,2.36-21.61,6.61-31.13L186.255,308c-14.01,15.19-34.08,24.71-56.34,24.71c-42.3,0-76.71-34.41-76.71-76.71    s34.41-76.71,76.71-76.71c22.26,0,42.33,9.52,56.34,24.71l125.73-82.67c-4.25-9.51-6.61-20.05-6.61-31.12    c0-42.3,34.41-76.71,76.71-76.71c42.29,0,76.71,34.41,76.71,76.71s-34.42,76.71-76.71,76.71c-22.26,0-42.33-9.53-56.35-24.72    l-125.72,82.67c2.62,5.86,4.52,12.11,5.58,18.63h122.27c5.68-24.68,27.84-43.14,54.22-43.14c30.67,0,55.63,24.96,55.63,55.64    c0,30.67-24.96,55.63-55.63,55.63c-26.38,0-48.54-18.46-54.22-43.13h-122.27c-1.06,6.52-2.96,12.77-5.58,18.63l125.73,82.65    c14.02-15.18,34.09-24.7,56.34-24.7C424.375,345.08,458.795,379.49,458.795,421.79z"/></g></g></svg>